<?xml version="1.0" encoding="UTF-8" standalone="no"?>
<svg
   width="2493"
   height="1011"
   viewBox="0 0 2493 1011"
   version="1.1"
   id="svg46"
   xmlns="http://www.w3.org/2000/svg"
   xmlns:svg="http://www.w3.org/2000/svg">
  <defs
     id="defs46" />
  <title
     id="title1">Group 28</title>
  <g
     id="Assets"
     stroke="none"
     stroke-width="1"
     fill="none"
     fill-rule="evenodd">
    <g
       id="Group-28">
      <path
         d="M 1485.994,126 H 512.00602 c -7.73535,0 -14.73594,3.13283 -19.80309,8.1974 C 487.13423,139.26351 484,146.26267 484,153.99378 v 667.01244 c 0,7.72706 3.1354,14.72689 8.2054,19.79431 C 497.27322,845.86576 504.27369,849 512.00602,849 H 1485.994 c 7.7353,0 14.7359,-3.13283 19.8031,-8.1974 5.0687,-5.06611 8.2029,-12.06527 8.2029,-19.79638 V 153.99378 c 0,-7.72706 -3.1354,-14.7269 -8.2054,-19.79431 C 1500.7268,129.13424 1493.7263,126 1485.994,126 Z"
         id="Case"
         stroke="#141C3A"
         stroke-width="8"
         fill="#ffffff"
         style="stroke:#141c3a;stroke-opacity:1" />
      <path
         d="M 1438.0065,188 H 558.99349 c -3.31041,0 -6.31059,1.34445 -8.48247,3.51985 -2.16865,2.17216 -3.51102,5.17251 -3.51102,8.4866 v 496.9871 c 0,3.31464 1.34189,6.31533 3.51057,8.48753 2.17098,2.1745 5.1703,3.51892 8.48292,3.51892 h 879.01301 c 3.3104,0 6.3106,-1.34445 8.4825,-3.51985 2.1686,-2.17216 3.511,-5.17252 3.511,-8.4866 v -496.9871 c 0,-3.31464 -1.3419,-6.31533 -3.5106,-8.48753 -2.1709,-2.1745 -5.1703,-3.51892 -8.4829,-3.51892 z"
         id="path1"
         stroke="#6E07F3"
         stroke-width="8"
         fill="#6E07F3"
         style="fill:#e6e6fa;fill-opacity:1;stroke:#141c3a;stroke-dasharray:none;stroke-dashoffset:0;stroke-opacity:1" />
      <path
         d="M 1073.3498,849 H 925.6502 l -9.97132,129 h 167.64222 z"
         id="path2"
         stroke="#141C3A"
         stroke-width="8"
         fill="#ffffff"
         style="stroke:#141c3a;stroke-opacity:1" />
      <path
         d="M 1143.9979,978 H 855.00206 c -0.27629,0 -0.52634,0.11135 -0.70715,0.29242 -0.18314,0.1834 -0.29491,0.43722 -0.29491,0.7168 V 992.5 c 0,4.00455 1.62325,7.6292 4.24776,10.2529 2.62531,2.6244 6.25233,4.2471 10.25853,4.2471 h 261.98741 c 4.0049,0 7.6318,-1.6236 10.2575,-4.2484 2.6246,-2.6237 4.2488,-6.2481 4.2488,-10.2516 v -13.49078 c 0,-0.27992 -0.1098,-0.53403 -0.2927,-0.71715 -0.1814,-0.1817 -0.4327,-0.29207 -0.7094,-0.29207 z"
         id="Keyboard"
         stroke="#141C3A"
         stroke-width="8"
         fill="#ffffff"
         transform="matrix(1,0,0,-1,0,1985)"
         style="stroke:#141c3a;stroke-opacity:1" />
      <circle
         id="Oval-6"
         stroke="#141C3A"
         stroke-width="8"
         cx="999.5"
         cy="784.5"
         r="18.5"
         style="stroke:#141c3a;stroke-opacity:1" />
      <rect
         id="rect2"
         stroke="#141C3A"
         stroke-width="8"
         fill="#ffffff"
         x="389"
         y="618"
         width="198"
         height="389"
         rx="24"
         style="stroke:#141c3a;stroke-opacity:1" />
      <path
         d="M 587,662 H 389 v 287.3 h 198 z"
         id="path3"
         stroke="#141C3A"
         stroke-width="8"
         fill="#141c3a"
         style="stroke:#141c3a;stroke-opacity:1" />
      <rect
         id="Rectangle-11"
         fill="#141c3a"
         x="441"
         y="636"
         width="95"
         height="8"
         rx="4"
         style="stroke:#141c3a;stroke-opacity:1" />
      <rect
         id="rect3"
         fill="#141c3a"
         x="477"
         y="966"
         width="22.799999"
         height="22.799999"
         rx="11.4"
         style="stroke:#141c3a;stroke-opacity:1" />
      <circle
         id="circle3"
         stroke="#6E07F3"
         stroke-width="8"
         fill="#6e07f3"
         cx="445"
         cy="805"
         r="15"
         style="stroke:#141c3a;stroke-opacity:1" />
      <g
         id="Group-73"
         transform="translate(480,779)"
         fill="#ffffff"
         style="stroke:#141c3a;stroke-opacity:1">
        <rect
           id="rect4"
           x="0"
           y="0"
           width="70"
           height="8"
           rx="4"
           style="stroke:#141c3a;stroke-opacity:1" />
        <rect
           id="rect5"
           x="0"
           y="22"
           width="50"
           height="8"
           rx="4"
           style="stroke:#141c3a;stroke-opacity:1" />
        <rect
           id="rect6"
           x="0"
           y="44"
           width="30"
           height="8"
           rx="4"
           style="stroke:#141c3a;stroke-opacity:1" />
      </g>
      <circle
         id="Oval-7"
         stroke="#141C3A"
         stroke-width="8"
         fill="#5BE9B9"
         cx="287.5"
         cy="653.5"
         r="153.5"
         style="fill:#e6e6fa;fill-opacity:1;stroke:#141c3a;stroke-opacity:1" />
      <path
         d="m 1940.0094,468 h -684.0188 c -7.7314,0 -14.7287,3.13378 -19.7934,8.20037 -5.065,5.06684 -8.1972,12.06692 -8.1972,19.79922 v 441.00082 c 0,7.72748 3.1335,14.72848 8.2001,19.79694 5.0653,5.06722 12.0623,8.20265 19.7905,8.20265 h 684.0188 c 7.7314,0 14.7287,-3.13378 19.7934,-8.20037 5.065,-5.06684 8.1972,-12.06692 8.1972,-19.79922 V 495.99959 c 0,-7.72748 -3.1335,-14.72849 -8.2001,-19.79694 C 1954.7346,471.13543 1947.7376,468 1940.0094,468 Z"
         id="path6"
         stroke="#141C3A"
         stroke-width="8"
         fill="#ffffff"
         style="stroke:#141c3a;stroke-opacity:1" />
      <path
         d="m 2018.0083,965 h -840.0166 c -0.273,0 -0.5199,0.1115 -0.6988,0.29067 -0.1813,0.18154 -0.2929,0.43247 -0.2929,0.70936 V 986 c 0,5.7998 2.3508,11.04943 6.1517,14.8492 3.8018,3.8007 9.0541,6.1508 14.8555,6.1508 h 799.9856 c 5.8013,0 11.0533,-2.3505 14.8548,-6.151 C 2016.6489,997.04885 2019,991.79894 2019,986 v -19.99997 c 0,-0.27657 -0.1132,-0.527 -0.2945,-0.70859 C 2018.527,965.11266 2018.281,965 2018.0083,965 Z"
         id="path7"
         stroke="#141C3A"
         stroke-width="8"
         fill="#ffffff"
         style="stroke:#141c3a;stroke-opacity:1" />
      <path
         d="m 1653.2902,965.44855 -111.9831,4.2e-4 c 1.949,5.13482 5.2231,9.61613 9.4026,13.02852 5.3382,4.35837 12.1564,6.97081 19.5844,6.97081 h 54.0103 c 7.4256,0 14.2431,-2.61332 19.5815,-6.97198 4.1797,-3.41258 7.4545,-7.89375 9.4043,-13.02777 z"
         id="Notch"
         stroke="#141C3A"
         stroke-width="8"
         fill="#ffffff"
         style="stroke:#141c3a;stroke-opacity:1" />
      <rect
         id="Screen"
         fill="#5BE9B9"
         x="1257"
         y="511"
         width="681.40656"
         height="411.84958"
         rx="8"
         style="fill:#e6e6fa;fill-opacity:1;stroke:#eeeefd;stroke-width:1;stroke-dasharray:none;stroke-dashoffset:0;stroke-opacity:1" />
      <g
         id="Group-69"
         transform="translate(695)"
         style="stroke:#141c3a;stroke-opacity:1">
        <circle
           id="Oval-3"
           fill="#293347"
           cx="282"
           cy="197"
           r="5"
           style="stroke:#141c3a;stroke-opacity:1" />
        <path
           d="M 450,59 H 4 v 435.00148 c 0,5.52509 2.2381937,10.52388 5.8575244,14.14169 C 13.478772,511.76289 18.48219,514 24.008624,514 H 429.99138 c 5.52603,0 10.52831,-2.23829 14.14908,-5.85754 C 447.76091,504.52354 450,499.52395 450,494.00148 Z"
           id="path8"
           stroke="#141C3A"
           stroke-width="8"
           fill="#141c3a"
           style="stroke:#141c3a;stroke-opacity:1" />
        <path
           d="M 429.99138,4 H 24.008624 C 18.482692,4 13.480542,6.2388067 9.8598485,9.8587715 6.2391653,13.478726 4,18.479773 4,24.003794 V 51 H 450 V 24.003794 C 450,18.481408 447.75992,13.480288 444.13876,9.8598561 440.51796,6.239786 435.51619,4 429.99138,4 Z"
           id="path9"
           stroke="#141C3A"
           stroke-width="8"
           fill="#ffffff"
           style="stroke:#141c3a;stroke-opacity:1" />
        <circle
           id="Oval-5"
           fill="#141c3a"
           cx="39"
           cy="28"
           r="9"
           style="stroke:#141c3a;stroke-opacity:1" />
        <circle
           id="circle9"
           fill="#6e07f3"
           cx="69"
           cy="28"
           r="9"
           style="stroke:#141c3a;stroke-opacity:1" />
        <circle
           id="circle10"
           fill="#5be9b9"
           cx="99"
           cy="28"
           r="9"
           style="stroke:#141c3a;stroke-opacity:1" />
        <g
           id="Group-72"
           transform="translate(52,143)"
           style="stroke:#141c3a;stroke-opacity:1">
          <rect
             id="rect10"
             fill="#535b6b"
             opacity="0.54"
             x="0"
             y="200"
             width="18"
             height="8"
             rx="4"
             style="stroke:#141c3a;stroke-opacity:1" />
          <rect
             id="rect11"
             fill="#535b6b"
             opacity="0.54"
             x="0"
             y="0"
             width="18"
             height="8"
             rx="4"
             style="stroke:#141c3a;stroke-opacity:1" />
          <path
             d="m 34,0 h 27 c 2.209139,0 4,1.790861 4,4 0,2.209139 -1.790861,4 -4,4 H 34 C 31.790861,8 30,6.209139 30,4 30,1.790861 31.790861,0 34,0 Z"
             id="path11"
             fill="#6e07f3"
             style="stroke:#141c3a;stroke-opacity:1" />
          <path
             d="m 79,0 h 27 c 2.20914,0 4,1.790861 4,4 0,2.209139 -1.79086,4 -4,4 H 79 C 76.790861,8 75,6.209139 75,4 75,1.790861 76.790861,0 79,0 Z"
             id="path12"
             fill="#5be9b9"
             style="stroke:#141c3a;stroke-opacity:1" />
          <path
             d="m 124,0 h 50 c 2.20914,0 4,1.790861 4,4 0,2.209139 -1.79086,4 -4,4 h -50 c -2.20914,0 -4,-1.790861 -4,-4 0,-2.209139 1.79086,-4 4,-4 z"
             id="path13"
             fill="#6e07f3"
             style="stroke:#141c3a;stroke-opacity:1" />
          <path
             d="m 192,0 h 74 c 2.20914,0 4,1.790861 4,4 0,2.209139 -1.79086,4 -4,4 h -74 c -2.20914,0 -4,-1.790861 -4,-4 0,-2.209139 1.79086,-4 4,-4 z"
             id="path14"
             fill="#6e07f3"
             style="stroke:#141c3a;stroke-opacity:1" />
          <rect
             id="rect14"
             fill="#535b6b"
             opacity="0.54"
             x="0"
             y="40"
             width="18"
             height="8"
             rx="4"
             style="stroke:#141c3a;stroke-opacity:1" />
          <rect
             id="rect15"
             fill="#535b6b"
             opacity="0.54"
             x="0"
             y="80"
             width="18"
             height="8"
             rx="4"
             style="stroke:#141c3a;stroke-opacity:1" />
          <rect
             id="rect16"
             fill="#535b6b"
             opacity="0.54"
             x="0"
             y="120"
             width="18"
             height="8"
             rx="4"
             style="stroke:#141c3a;stroke-opacity:1" />
          <rect
             id="rect17"
             fill="#535b6b"
             opacity="0.54"
             x="0"
             y="160"
             width="18"
             height="8"
             rx="4"
             style="stroke:#141c3a;stroke-opacity:1" />
          <rect
             id="rect18"
             fill="#535b6b"
             opacity="0.54"
             x="0"
             y="240"
             width="18"
             height="8"
             rx="4"
             style="stroke:#141c3a;stroke-opacity:1" />
          <rect
             id="rect19"
             fill="#535b6b"
             opacity="0.54"
             x="0"
             y="280"
             width="18"
             height="8"
             rx="4"
             style="stroke:#141c3a;stroke-opacity:1" />
          <rect
             id="rect20"
             fill="#6e07f3"
             x="30"
             y="40"
             width="70"
             height="8"
             rx="4"
             style="stroke:#141c3a;stroke-opacity:1" />
          <rect
             id="rect21"
             fill="#5be9b9"
             x="110"
             y="40"
             width="120"
             height="8"
             rx="4"
             style="stroke:#141c3a;stroke-opacity:1" />
          <rect
             id="rect22"
             fill="#6e07f3"
             x="240"
             y="40"
             width="50"
             height="8"
             rx="4"
             style="stroke:#141c3a;stroke-opacity:1" />
          <rect
             id="rect23"
             fill="#5be9b9"
             x="30"
             y="80"
             width="50"
             height="8"
             rx="4"
             style="stroke:#141c3a;stroke-opacity:1" />
          <rect
             id="rect24"
             fill="#6e07f3"
             x="90"
             y="80"
             width="50"
             height="8"
             rx="4"
             style="stroke:#141c3a;stroke-opacity:1" />
          <rect
             id="rect25"
             fill="#6e07f3"
             x="150"
             y="80"
             width="30"
             height="8"
             rx="4"
             style="stroke:#141c3a;stroke-opacity:1" />
          <rect
             id="rect26"
             fill="#6e07f3"
             x="30"
             y="120"
             width="100"
             height="8"
             rx="4"
             style="stroke:#141c3a;stroke-opacity:1" />
          <rect
             id="rect27"
             fill="#6e07f3"
             x="140"
             y="120"
             width="70"
             height="8"
             rx="4"
             style="stroke:#141c3a;stroke-opacity:1" />
          <rect
             id="rect28"
             fill="#6e07f3"
             x="30"
             y="160"
             width="100"
             height="8"
             rx="4"
             style="stroke:#141c3a;stroke-opacity:1" />
          <rect
             id="rect29"
             fill="#5be9b9"
             x="140"
             y="160"
             width="130"
             height="8"
             rx="4"
             style="stroke:#141c3a;stroke-opacity:1" />
          <rect
             id="rect30"
             fill="#6e07f3"
             x="30"
             y="200"
             width="70"
             height="8"
             rx="4"
             style="stroke:#141c3a;stroke-opacity:1" />
          <rect
             id="rect31"
             fill="#5be9b9"
             x="110"
             y="200"
             width="70"
             height="8"
             rx="4"
             style="stroke:#141c3a;stroke-opacity:1" />
          <rect
             id="rect32"
             fill="#6e07f3"
             x="190"
             y="200"
             width="40"
             height="8"
             rx="4"
             style="stroke:#141c3a;stroke-opacity:1" />
          <rect
             id="rect33"
             fill="#6e07f3"
             x="30"
             y="240"
             width="130"
             height="8"
             rx="4"
             style="stroke:#141c3a;stroke-opacity:1" />
          <rect
             id="rect34"
             fill="#5be9b9"
             x="30"
             y="280"
             width="60"
             height="8"
             rx="4"
             style="stroke:#141c3a;stroke-opacity:1" />
        </g>
      </g>
      <g
         id="Group-68"
         transform="translate(1598,319)"
         style="stroke:#141c3a;stroke-opacity:1">
        <path
           d="M 544,46 H -4 v 389.99645 c 0,7.7349 3.13486894,14.73536 8.2031681,19.80239 C 9.2718665,460.86626 16.274497,464 24.009594,464 H 515.99041 c 7.73821,0 14.7393,-3.13372 19.80649,-8.19964 C 540.86602,450.73252 544,443.73071 544,435.99645 Z"
           id="path34"
           stroke="#141C3A"
           stroke-width="8"
           fill="#ffffff"
           style="stroke:#141c3a;stroke-opacity:1" />
        <path
           d="M 515.99041,-4 H 24.009594 C 16.271574,-4 9.2707474,-0.86758233 4.2037081,4.195989 -0.86587661,9.2621041 -4,16.261578 -4,23.993162 V 54 H 544 V 23.993162 C 544,16.262529 540.86473,9.2639013 535.79533,4.1979746 530.72684,-0.86705433 523.7248,-4 515.99041,-4 Z"
           id="path35"
           stroke="#141C3A"
           stroke-width="8"
           fill="#141c3a"
           style="stroke:#141c3a;stroke-opacity:1" />
        <circle
           id="circle35"
           fill="#ffffff"
           cx="39"
           cy="25"
           r="9"
           style="stroke:#141c3a;stroke-opacity:1" />
        <circle
           id="circle36"
           fill="#6e07f3"
           cx="69"
           cy="25"
           r="9"
           style="stroke:#141c3a;stroke-opacity:1" />
        <circle
           id="circle37"
           fill="#5be9b9"
           cx="99"
           cy="25"
           r="9"
           style="stroke:#141c3a;stroke-opacity:1" />
        <g
           id="Group-61"
           transform="translate(219,139)"
           style="stroke:#141c3a;stroke-opacity:1">
          <circle
             id="circle38"
             stroke="#6E07F3"
             stroke-width="9"
             cx="116"
             cy="116"
             r="100"
             style="fill:#e6e6fa;fill-opacity:1;stroke:#141c3a;stroke-opacity:1" />
          <path
             d="m 129,4 h -24 v 24 h 24 z"
             id="Rectangle-12"
             stroke="#5BE9B9"
             stroke-width="8"
             fill="#fffffe"
             style="stroke:#141c3a;stroke-opacity:1" />
          <path
             d="m 128,204 h -24 v 24 h 24 z"
             id="path38"
             stroke="#5BE9B9"
             stroke-width="8"
             fill="#fffffe"
             style="stroke:#141c3a;stroke-opacity:1" />
          <path
             d="M 28,105 H 4 v 24 h 24 z"
             id="path39"
             stroke="#5BE9B9"
             stroke-width="8"
             fill="#fffffe"
             style="stroke:#141c3a;stroke-opacity:1" />
          <line
             x1="216"
             y1="26"
             x2="216"
             y2="101"
             id="Line"
             stroke="#141C3A"
             stroke-width="8"
             stroke-linecap="square"
             style="stroke:#141c3a;stroke-opacity:1" />
          <line
             x1="216"
             y1="131"
             x2="216"
             y2="206"
             id="line39"
             stroke="#141C3A"
             stroke-width="8"
             stroke-linecap="square"
             style="stroke:#141c3a;stroke-opacity:1" />
          <circle
             id="circle39"
             fill="#141c3a"
             cx="216"
             cy="23"
             r="12"
             style="stroke:#141c3a;stroke-opacity:1" />
          <circle
             id="circle40"
             fill="#141c3a"
             cx="216"
             cy="213"
             r="12"
             style="stroke:#141c3a;stroke-opacity:1" />
          <path
             d="m 227,105 h -24 v 24 h 24 z"
             id="path40"
             stroke="#5BE9B9"
             stroke-width="8"
             fill="#fffffe"
             style="stroke:#141c3a;stroke-opacity:1" />
        </g>
        <g
           id="Group-60"
           transform="translate(90,130)"
           style="stroke:#141c3a;stroke-opacity:1">
          <rect
             id="Rectangle-15"
             fill="#141c3a"
             x="0"
             y="0"
             width="70"
             height="70"
             rx="12"
             style="stroke:#141c3a;stroke-opacity:1" />
          <rect
             id="rect40"
             fill="#5BE9B9"
             x="0"
             y="90"
             width="70"
             height="70"
             rx="12"
             style="fill:#98aca6;fill-opacity:1;stroke:#141c3a;stroke-opacity:1" />
          <rect
             id="rect41"
             fill="#6E07F3"
             x="0"
             y="180"
             width="70"
             height="70"
             rx="12"
             style="fill:#e6e6fa;fill-opacity:1;stroke:#141c3a;stroke-opacity:1" />
        </g>
      </g>
      <g
         id="Group-65"
         transform="translate(2253,800)"
         stroke="#141C3A"
         stroke-width="8"
         style="stroke:#141c3a;stroke-opacity:1">
        <g
           id="Group-64"
           transform="translate(116,51)"
           fill="#ffffff"
           style="stroke:#141c3a;stroke-opacity:1">
          <circle
             id="Oval-8"
             cx="60"
             cy="60"
             r="60"
             style="stroke:#141c3a;stroke-opacity:1" />
          <circle
             id="circle41"
             cx="60"
             cy="60"
             r="35"
             style="stroke:#141c3a;stroke-opacity:1" />
        </g>
        <circle
           id="circle42"
           fill="#fffffe"
           cx="96"
           cy="20"
           r="20"
           style="stroke:#141c3a;stroke-opacity:1" />
        <path
           d="M 177.92965,15 H 8 C 6.8954305,15 5.8954305,15.447715 5.1715729,16.171573 4.4477152,16.89543 4,17.89543 4,19 v 168 c 0,5.52285 2.2385763,10.52285 5.8578644,14.14214 C 13.477153,204.76142 18.477152,207 24,207 h 137.92965 c 5.52285,0 10.52285,-2.23858 14.14213,-5.85786 3.61929,-3.61929 5.85787,-8.61929 5.85787,-14.14214 V 19 c 0,-1.10457 -0.44772,-2.10457 -1.17158,-2.828427 C 180.03422,15.447715 179.03422,15 177.92965,15 Z"
           id="Rectangle-16"
           fill="#ffffff"
           style="stroke:#141c3a;stroke-opacity:1" />
        <path
           d="M 133,69 H 97 c -2.209139,0 -4.209139,0.895431 -5.656854,2.343146 C 89.895431,72.790861 89,74.790861 89,77 v 48 c 0,2.20914 0.895431,4.20914 2.343146,5.65685 C 92.790861,132.10457 94.790861,133 97,133 h 36 c 2.20914,0 4.20914,-0.89543 5.65685,-2.34315 C 140.10457,129.20914 141,127.20914 141,125 V 77 c 0,-2.209139 -0.89543,-4.209139 -2.34315,-5.656854 C 137.20914,69.895431 135.20914,69 133,69 Z"
           id="path42"
           fill="#5BE9B9"
           style="fill:#e6e6fa;fill-opacity:1;stroke:#141c3a;stroke-opacity:1" />
        <line
           x1="114.5"
           y1="16.5"
           x2="114.5"
           y2="62"
           id="Line-2"
           stroke-linecap="square"
           style="stroke:#141c3a;stroke-opacity:1" />
      </g>
      <g
         id="Group-78"
         transform="translate(2080,948)"
         style="stroke:#141c3a;stroke-opacity:1">
        <path
           d="M 63,4.2 C 46.762828,4.2 32.062828,10.781414 21.422121,21.422121 11.706858,31.137384 5.3755035,44.236554 4.347689,58.8 H 121.65231 C 120.6245,44.236554 114.29314,31.137384 104.57788,21.422121 93.937172,10.781414 79.237172,4.2 63,4.2 Z"
           id="path43"
           stroke="#141C3A"
           stroke-width="8.4"
           fill="#ffffff"
           style="stroke:#141c3a;stroke-opacity:1" />
        <rect
           id="rect43"
           fill="#141c3a"
           x="59"
           y="5"
           width="8"
           height="13"
           rx="4"
           style="stroke:#141c3a;stroke-opacity:1" />
      </g>
      <g
         id="Group-27"
         transform="translate(0,885)"
         style="stroke:#141c3a;stroke-opacity:1">
        <path
           d="M 305,4 H 63.000491 C 46.707955,4 31.957833,10.603855 21.280844,21.280844 10.603855,31.957833 4,46.707955 4,63.000491 c 0,16.292536 6.603855,31.042659 17.280844,41.719649 10.676989,10.67699 25.427111,17.28084 41.719647,17.28084 H 305 c 1.65685,0 3.15685,-0.67157 4.24264,-1.75736 C 310.32843,119.15784 311,117.65784 311,116.00098 v -9.2864 c 0,-2.09901 -0.81124,-4.01951 -2.14591,-5.45248 -1.33467,-1.43298 -3.19277,-2.378433 -5.28649,-2.527358 -13.84282,-0.984636 -24.13302,-4.49873 -31.03166,-10.2086 -7.26983,-6.017101 -11.03789,-14.479928 -11.03789,-25.52565 0,-11.060564 3.77633,-19.607721 11.12962,-25.768836 6.9491,-5.822461 17.32382,-9.519551 31.3217,-10.778933 2.00271,-0.23845 3.76158,-1.205956 5.0221,-2.619599 C 310.23702,22.413856 311,20.544302 311,18.509441 V 10 C 311,8.3431458 310.32843,6.8431457 309.24264,5.7573593 308.15685,4.6715729 306.65685,4 305,4 Z"
           id="Rectangle-17"
           stroke="#141C3A"
           stroke-width="8"
           fill="#6E07F3"
           style="fill:#e6e6fa;fill-opacity:1;stroke:#141c3a;stroke-opacity:1" />
        <path
           d="M 292.78611,27 H 62 C 52.058875,27 43.058875,31.029437 36.544156,37.544156 30.029437,44.058875 26,53.058875 26,63 26,72.941125 30.029437,81.941125 36.544156,88.455844 43.058875,94.970563 52.058875,99 62,99 c 108.89608,0 186.32825,0.207629 232.29651,0.622677 h -1e-5 C 286.25043,97.44987 277.02258,94.370416 270.4704,87.641048 265.20683,82.235138 261.49805,74.537503 261.49805,63 c 0,-11.646962 3.77845,-19.372547 9.12075,-24.760067 C 276.74987,32.056966 285.17586,29.041635 292.78611,27 Z"
           id="Rectangle-19"
           stroke="#141C3A"
           stroke-width="8"
           fill="#ffffff"
           style="stroke:#141c3a;stroke-opacity:1" />
        <path
           d="M 57.925234,72 H 260.07477 C 262.24261,72 264,73.790861 264,76 c 0,2.209139 -1.75739,4 -3.92523,4 H 57.925234 C 55.757387,80 54,78.209139 54,76 c 0,-2.209139 1.757387,-4 3.925234,-4 z"
           id="Rectangle-18"
           fill="#141c3a"
           style="stroke:#141c3a;stroke-opacity:1" />
        <path
           d="M 57.925234,46 H 260.07477 C 262.24261,46 264,47.790861 264,50 c 0,2.209139 -1.75739,4 -3.92523,4 H 57.925234 C 55.757387,54 54,52.209139 54,50 c 0,-2.209139 1.757387,-4 3.925234,-4 z"
           id="path44"
           fill="#141c3a"
           style="stroke:#141c3a;stroke-opacity:1" />
      </g>
      <g
         id="Group-94"
         transform="translate(199,589)"
         fill="#141c3a"
         fill-rule="nonzero"
         style="stroke:#141c3a;stroke-opacity:1">
        <path
           d="M 51.154264,100.35679 C 46.246682,95.993776 41.3391,91.630763 36.431517,87.267749 28.610758,80.322543 20.812407,73.355078 12.991648,66.409872 11.198924,64.829393 9.4061998,63.226653 7.6358846,61.646174 c 0,2.092465 0,4.207191 0,6.299657 4.9075824,-4.363014 9.8151654,-8.726027 14.7227474,-13.089041 7.820759,-6.945205 15.61911,-13.912671 23.439869,-20.857877 1.792724,-1.580479 3.585448,-3.183219 5.355763,-4.763698 1.747907,-1.558219 1.725497,-4.741439 0,-6.299658 -1.859951,-1.714041 -4.459401,-1.66952 -6.341761,0 -4.907583,4.363014 -9.815165,8.726028 -14.722748,13.089041 -7.820759,6.945206 -15.619109,13.912671 -23.4398687,20.857877 -1.7927242,1.58048 -3.5854484,3.183219 -5.3557635,4.763699 -1.72549706,1.535959 -1.72549706,4.763698 0,6.299657 4.9075825,4.363014 9.8151652,8.726028 14.7227472,13.089041 7.820759,6.945206 15.61911,13.912671 23.439869,20.857878 1.792724,1.58048 3.585448,3.18322 5.355764,4.7637 1.747906,1.55822 4.638674,1.8476 6.341761,0 1.568634,-1.69178 1.859952,-4.63014 0,-6.29966 z"
           id="Shape"
           style="stroke:#141c3a;stroke-opacity:1" />
        <path
           d="m 125.88587,29.245804 c 4.90759,4.363014 9.81517,8.726028 14.72275,13.089041 7.82076,6.945206 15.61911,13.912672 23.43987,20.857877 1.79272,1.58048 3.58545,3.183219 5.35576,4.763699 0,-2.092466 0,-4.207192 0,-6.299658 -4.90758,4.363014 -9.81516,8.726028 -14.72275,13.089041 -7.82075,6.945206 -15.6191,13.912671 -23.43986,20.857877 -1.79273,1.58048 -3.58545,3.183219 -5.35577,4.763699 -1.7479,1.55822 -1.72549,4.74144 0,6.29966 1.85995,1.71404 4.4594,1.66952 6.34176,0 4.90759,-4.36302 9.81517,-8.72603 14.72275,-13.089044 7.82076,-6.945205 15.61911,-13.912671 23.43987,-20.857877 1.79272,-1.580479 3.58545,-3.183219 5.35576,-4.763698 1.7255,-1.535959 1.7255,-4.763699 0,-6.299658 -4.90758,-4.363014 -9.81516,-8.726027 -14.72274,-13.089041 -7.82076,-6.945205 -15.61911,-13.912671 -23.43987,-20.857877 -1.79273,-1.580479 -3.58545,-3.183219 -5.35577,-4.763698 -1.7479,-1.558219 -4.63867,-1.847603 -6.34176,0 -1.56863,1.691781 -1.85995,4.630137 0,6.299657 z"
           id="path45"
           style="stroke:#141c3a;stroke-opacity:1" />
        <path
           d="m 72.538103,126.57192 c 1.344543,-4.00685 2.666677,-8.0137 4.01122,-12.04281 3.204495,-9.6387 6.408989,-19.255137 9.613484,-28.893836 3.854357,-11.619863 7.708714,-23.217466 11.58548,-34.837329 3.338953,-10.039383 6.677893,-20.078767 10.016843,-30.118151 1.59105,-4.874999 3.38377,-9.727739 4.86277,-14.66952 0.0224,-0.066781 0.0448,-0.1335617 0.0672,-0.2003425 0.73949,-2.2037671 -0.85155,-4.96404109 -3.13727,-5.47602739 -2.465,-0.55650685 -4.72831,0.73458899 -5.51263,3.11643839 -1.34454,4.0068493 -2.66668,8.0136985 -4.01122,12.0428085 -3.204494,9.638698 -6.408989,19.255137 -9.613483,28.893835 -3.854357,11.619863 -7.708714,23.217466 -11.58548,34.837329 -3.338949,10.039384 -6.677898,20.078767 -10.016847,30.118155 -1.591043,4.85274 -3.383767,9.70548 -4.862764,14.64726 -0.02241,0.0668 -0.04482,0.13356 -0.06723,0.20034 -0.739498,2.20377 0.851544,4.96404 3.137268,5.47603 2.464996,0.5565 4.72831,-0.73459 5.512627,-3.09418 z"
           id="path46"
           style="stroke:#141c3a;stroke-opacity:1" />
      </g>
    </g>
  </g>
</svg>
