<?xml version="1.0" encoding="UTF-8" standalone="no"?>
<!-- Created with Inkscape (http://www.inkscape.org/) -->

<svg
   width="411.07217"
   height="292.05664"
   viewBox="0 0 108.76285 77.273318"
   version="1.1"
   id="svg1"
   xmlns="http://www.w3.org/2000/svg"
   xmlns:svg="http://www.w3.org/2000/svg">
  <defs
     id="defs1" />
  <g
     id="layer1"
     transform="translate(-71.942893,-61.822583)">
    <g
       id="g16">
      <g
         id="g17"
         style="fill:#f9f9f9;fill-opacity:1">
        <g
           id="g14"
           transform="translate(-0.52916666)"
           style="fill:#f9f9f9;fill-opacity:1">
          <g
             id="g15"
             style="fill:#f9f9f9;fill-opacity:1">
            <path
               d="m 144.10712,65.362934 -2.91041,6.492627 28.15057,66.711169 h 11.88764 v -1.98695 c -2.22003,-0.17903 -3.93832,-0.82372 -5.15575,-1.93374 -1.61131,-1.46809 -3.6704,-5.03074 -6.17689,-10.68823 l -21.02129,-50.005736 -3.75326,-8.58914 z"
               style="font-weight:bold;font-size:109.999px;line-height:1.25;font-family:'Times New Roman';-inkscape-font-specification:'Times New Roman,  Bold';fill:#f9f9f9;fill-opacity:1;stroke-width:4.58328"
               id="path14" />
            <path
               d="m 123.75162,109.77573 c 0.55993,1.89045 0.85731,3.87697 0.85731,5.97224 0,0.83084 -0.0568,1.64179 -0.14573,2.4412 l 0.15296,-0.3545 h 25.72712 l 3.86694,9.07696 c 1.00259,2.36325 1.53966,3.70592 1.61127,4.02818 0.21484,0.68034 0.32247,1.34295 0.32247,1.98747 0,1.07421 -0.3941,1.89775 -1.18184,2.47066 -1.14582,0.78774 -3.13265,1.18184 -5.9614,1.18184 h -1.45056 v 1.98695 h 20.02927 L 140.00231,73.521093 Z m 13.91594,-20.998721 10.84947,25.083221 h -22.02139 z"
               style="font-weight:bold;font-size:109.999px;line-height:1.25;font-family:'Times New Roman';-inkscape-font-specification:'Times New Roman,  Bold';fill:#f9f9f9;fill-opacity:1;stroke-width:4.58328"
               id="path13" />
          </g>
        </g>
        <path
           d="m 96.088707,61.822582 c -6.481022,0 -11.852225,2.041171 -16.113228,6.123141 -0.853409,0.81755 -1.617117,1.670971 -2.299601,2.557466 0.0601,0.556403 0.07191,0.643884 0.144177,1.32395 0.287776,2.708089 0.672308,6.414613 2.347144,9.732223 1.674834,3.317608 4.639815,6.246265 9.987503,10.206612 5.34769,3.960346 13.077608,8.952626 18.205608,13.137186 5.12799,4.18455 7.6541,7.56165 8.90333,12.44885 0.40073,1.56772 0.66669,3.29015 0.82217,5.06067 0.25093,2.85729 0.21049,5.84143 -0.0429,8.51421 0.88956,-0.8722 1.66499,-1.78477 2.37402,-2.72076 2.28007,-3.00994 3.63778,-6.34563 4.04626,-10.01696 0.0889,-0.7994 0.14573,-1.61037 0.14573,-2.4412 0,-2.09526 -0.29738,-4.0818 -0.85731,-5.97224 -0.72231,-2.43864 -1.89309,-4.71322 -3.54707,-6.81096 -2.97197,-3.723892 -8.71932,-7.680683 -17.24133,-11.870073 -6.087139,-3.007767 -9.972182,-5.102231 -11.6551,-6.283854 -2.291631,-1.647111 -3.956648,-3.312643 -4.995043,-4.995561 -0.751943,-1.253237 -1.12758,-2.685076 -1.12758,-4.296378 0,-2.542281 1.056199,-4.780238 3.168799,-6.713802 2.148404,-1.969373 5.048988,-2.954342 8.701277,-2.954342 4.726497,0 9.112727,1.861804 13.158887,5.585705 4.08198,3.688096 6.64227,8.576039 7.68067,14.663188 h 2.20193 L 119.5064,61.822582 h -1.61127 c -0.4655,2.184212 -0.96721,3.562757 -1.5043,4.135665 -0.53711,0.572908 -1.27096,0.859379 -2.20194,0.859379 -0.96677,0 -2.66767,-0.572943 -5.10253,-1.718758 -2.39904,-1.181623 -4.44022,-1.987226 -6.12314,-2.416907 -2.22001,-0.572908 -4.511268,-0.859379 -6.874513,-0.859379 z"
           style="font-weight:bold;font-size:109.999px;line-height:1.25;font-family:'Times New Roman';-inkscape-font-specification:'Times New Roman,  Bold';fill:#f9f9f9;fill-opacity:1;stroke-width:4.58328"
           id="path12" />
        <path
           d="m 76.088377,71.561523 c -2.725115,3.539713 -4.092256,7.627514 -4.092256,12.266434 0,3.401648 0.770242,6.516944 2.309936,9.345683 1.5755,2.828739 3.813449,5.389033 6.713802,7.68067 2.900353,2.29164 7.662721,5.06665 14.286983,8.32507 4.726498,2.32745 8.020648,4.22511 9.882598,5.6932 1.86195,1.43226 3.2405,2.9543 4.13566,4.56561 0.93098,1.6113 1.3963,3.27631 1.3963,4.99504 0,2.90034 -1.19917,5.44271 -3.59823,7.62693 -2.36325,2.18422 -5.5503,3.27628 -9.560651,3.27628 -5.19199,0 -10.04404,-2.02323 -14.555701,-6.06939 -4.475852,-4.08199 -7.501465,-9.99024 -9.076965,-17.7245 h -1.986959 v 27.49961 h 1.986959 c 0.644524,-1.46808 1.485996,-2.56015 2.524394,-3.27629 1.038398,-0.71613 2.023364,-1.07435 2.954341,-1.07435 1.110011,0 2.524424,0.35822 4.243152,1.07435 3.079387,1.28905 5.639161,2.1664 7.680151,2.63189 2.040989,0.46548 4.207709,0.69814 6.499345,0.69814 2.516964,0 4.869874,-0.2782 7.080704,-0.79685 4.20531,-0.98655 7.86786,-2.89253 10.96574,-5.75572 0.19879,-0.18385 0.38725,-0.37132 0.57774,-0.5581 0.20895,-2.2042 0.27244,-4.62001 0.14831,-7.00216 -0.11965,-2.29631 -0.41348,-4.56145 -0.92759,-6.57272 -1.24924,-4.88721 -3.77533,-8.2643 -8.90333,-12.44886 -5.12801,-4.18456 -12.857908,-9.176829 -18.205608,-13.137183 -5.347699,-3.960354 -8.312666,-6.888997 -9.987504,-10.206612 -1.674839,-3.317616 -2.059367,-7.024128 -2.347143,-9.732222 -0.07227,-0.680068 -0.08408,-0.767546 -0.144178,-1.32395 z"
           style="font-weight:bold;font-size:109.999px;line-height:1.25;font-family:'Times New Roman';-inkscape-font-specification:'Times New Roman,  Bold';fill:#f9f9f9;fill-opacity:1;stroke-width:4.58328"
           id="path11" />
      </g>
    </g>
  </g>
</svg>
